<?xml version="1.0" encoding="UTF-8"?>
<svg id="Layer_1" data-name="Layer 1" xmlns="http://www.w3.org/2000/svg" viewBox="0 0 1165 327">
  <defs>
    <style>
      .cls-1 {
        fill: #369;
      }
    </style>
  </defs>
  <path d="M69.4453,73.0498h48.9648v112.5376c0,53.0225-25.4292,72.7705-69.2539,72.7705-10.0098,0-23.2651-1.3525-32.1924-4.3281l5.1396-39.2261c5.9517,1.623,13.5264,2.9761,21.3716,2.9761,15.6904,0,25.9702-7.0337,25.9702-32.1924v-112.5376Z"/>
  <path d="M179.0049,73.0498v103.6104c0,27.5933,9.4683,43.0132,28.6753,43.0132,19.4775,0,28.9458-14.0674,28.9458-43.0132v-103.6104h48.9648v100.6348c0,56.2686-28.1343,84.6733-79.2632,84.6733-49.7764,0-76.2876-27.3228-76.2876-85.7559v-99.5522h48.9648Z"/>
  <path d="M298.5757,255.3823V73.0498h57.6216l28.9458,55.998c10.0093,18.125,20.5596,42.4722,28.6753,63.8438h.8115c-2.7051-24.0767-3.7871-49.5059-3.7871-76.8286v-43.0132h44.6362v182.3325h-51.3994l-31.1099-60.5972c-10.0098-19.207-21.9126-43.8247-30.5693-65.7373h-1.082c1.3525,24.6177,1.8936,51.9404,1.8936,81.6982v44.6362h-44.6362Z"/>
  <path d="M605.3481,250.7832c-6.7632,3.5171-24.0767,7.5747-45.7188,7.5747-68.1714,0-98.1997-42.4722-98.1997-91.166,0-64.3848,47.0713-97.1177,101.4463-97.1177,20.8301,0,37.873,4.0576,45.4478,8.1157l-9.4683,38.4141c-7.8452-3.2461-19.207-6.4927-33.8154-6.4927-27.8638,0-52.2109,16.502-52.2109,53.834,0,33.2744,19.748,53.8345,53.293,53.8345,11.6328,0,24.8882-2.1646,32.4629-5.1401l6.7632,38.1436Z"/>
  <path d="M649.1709,114.1694h-46.5298v-41.1196h142.8364v41.1196h-47.3418v141.2129h-48.9648V114.1694Z"/>
  <path d="M796.6055,73.0498v182.3325h-48.9648V73.0498h48.9648Z"/>
  <path d="M987.0547,255.3823V73.0498h57.6211l28.9463,55.998c10.0098,18.125,20.5596,42.4722,28.6758,63.8438h.8115c-2.7051-24.0767-3.7881-49.5059-3.7881-76.8286v-43.0132h44.6367v182.3325h-51.3994l-31.1104-60.5972c-10.0088-19.207-21.9121-43.8247-30.5693-65.7373h-1.082c1.3535,24.6177,1.8945,51.9404,1.8945,81.6982v44.6362h-44.6367Z"/>
  <g>
    <path class="cls-1" d="M891.8291,108.4883c21.8212,0,35.4512,20.0082,37.5734,47.5117h51.7987c-2.0746-39.0289-23.4553-73.4699-63.7188-83.3554V11h-48.9648v61.7372c-38.5848,9.6827-62.6959,42.4676-65.869,83.2628h51.6287c2.2501-28.8986,16.4926-47.5117,37.5519-47.5117Z"/>
    <path class="cls-1" d="M892.3701,219.6733c-20.7412,0-34.7517-16.3937-37.7883-43.7983h-51.8271c3.4681,39.1615,26.3474,71.6433,65.7629,80.2361v57.8889h48.9648v-59.002c36.105-9.3892,59.1106-37.9683,63.2069-79.123h-51.6664c-3.0327,26.3319-16.1431,43.7983-36.6528,43.7983Z"/>
  </g>
</svg>