<?xml version="1.0" encoding="UTF-8"?>
<svg id="Layer_1" data-name="Layer 1" xmlns="http://www.w3.org/2000/svg" viewBox="0 0 805 283">
  <defs>
    <style>
      .cls-1 {
        fill: #369;
      }
    </style>
  </defs>
  <path class="cls-1" d="M728.126,19.9971v60.9019h58.3037v31.1724h-58.3037v61.4795h-32.6162v-61.4795h-58.3047v-31.1724h58.3047V19.9971h32.6162Z"/>
  <path class="cls-1" d="M429.6187,268.3086c-30.5801-9.0498-54.2949-18.7227-84.251-31.5166-4.9927-2.1846-10.2974-3.1201-15.2905-3.4326-46.4941-3.4326-91.7402-37.7568-91.7402-107.0303,0-61.4727,39.3174-110.4629,105.1582-110.4629,67.0894,0,101.4141,50.5508,101.4141,106.0938,0,45.2461-20.9072,78.6348-45.2466,91.1172v1.248c14.042,4.6807,29.9561,7.8008,45.8706,11.2334l-15.9146,42.75ZM342.2471,188.7373c27.1475,0,43.062-26.2119,43.062-64.5928,0-36.8213-16.2266-63.6562-43.686-63.6562-26.5234,0-43.686,26.835-43.686,63.9688-.312,38.0684,16.5381,64.2803,43.686,64.2803h.624Z"/>
  <path d="M228.4019,126.7417c0-26.8698,7.5125-51.3542,21.4678-70.4055l-1.8526-36.7254h-73.9541l-15.9141,56.1675c-6.2407,22.1553-13.106,51.7993-19.0347,77.3867h-.936c-4.3687-25.5874-10.6094-53.6714-16.5381-77.0747l-13.73-56.4795H32.084l-13.106,210.3164h51.7988l3.4326-75.2021c.936-24.0273,1.8721-55.2314,3.1206-84.8755h.624c4.9927,28.708,11.2334,59.9121,16.8501,82.6909l17.4746,73.0181h43.9976l20.9072-73.3301c6.8647-23.0908,15.6021-54.6069,22.1548-82.3789h.936c0,32.7642.312,60.8481,1.2485,84.8755l2.4961,75.2021h54.6074l-1.2318-24.4186c-17.433-17.6805-28.9928-43.7579-28.9928-78.767Z"/>
  <g>
    <polygon points="568.0386 19.6108 528.2663 19.6108 547.709 67.041 568.0386 67.041 568.9517 67.041 568.9517 229.9272 625.4312 229.9272 625.4312 67.041 680.0386 67.041 680.0386 19.6108 568.0386 19.6108"/>
    <path d="M516.378,19.6108h-113.0977v6.1184c18.5046,9.1639,32.2805,23.7489,41.2421,41.3118h12.4293v52.0095c.0134.7731.0225,1.5469.0225,2.3221,0,.5229-.0169,1.0361-.0225,1.5558v101.9045c.2156.0464.4308.0918.6465.1383l-.6465,1.7366v3.2195h56.4795V67.041h22.3896l-19.4427-47.4302Z"/>
  </g>
</svg>